# xmcd
#
# Track frame offsets: 
#        150
#        14285
#        27252
#        42973
#        57436
#        75130
#        84782
#        99932
#        120725
#        132265
#
# Disc length: 1999 seconds
#
# Revision: 0
# Processed by: cddbd v1.5.2PL0 Copyright (c) Steve Scherf et al.
# Submitted via: ExactAudioCopy v1.1
#
DISCID=6907cd0a
DTITLE=Matt Campbell - The Man With Everything
DYEAR=2018
DGENRE=Country
TTITLE0=The Night That I Found Jesus
TTITLE1=Pillar of Fire
TTITLE2=Trading Teardrops
TTITLE3=Christmas in Nashville
TTITLE4=Twice as Big
TTITLE5=That's the Way
TTITLE6=It's Ours
TTITLE7=Simple Twist of Fate
TTITLE8=More Than Memories
TTITLE9=Bonus Track
EXTD=
EXTT0=
EXTT1=
EXTT2=
EXTT3=
EXTT4=
EXTT5=
EXTT6=
EXTT7=
EXTT8=
EXTT9=
PLAYORDER=
